<svg width="91" height="96" viewBox="0 0 91 96" fill="none" xmlns="http://www.w3.org/2000/svg">
<mask id="mask0_3_4796" style="mask-type:luminance" maskUnits="userSpaceOnUse" x="0" y="0" width="91" height="96">
<path d="M90.86 0.350006H0V95.44H90.86V0.350006Z" fill="white"/>
</mask>
<g mask="url(#mask0_3_4796)">
<mask id="mask1_3_4796" style="mask-type:luminance" maskUnits="userSpaceOnUse" x="0" y="0" width="91" height="96">
<path d="M90.86 0.359985H0V95.45H90.86V0.359985Z" fill="white"/>
</mask>
<g mask="url(#mask1_3_4796)">
<path d="M45.71 0.349992C38.67 0.339992 31.71 1.92999 25.37 4.99999C9.69995 12.65 -0.170046 28.63 -0.0100465 46.07C-0.0100465 68.94 21.32 95.44 39.57 95.44C44.18 95.41 48.46 93.01 50.9 89.1C58.4 77.77 66.0799 71.24 77.41 66.24C87.99 61.63 90.86 57.02 90.86 45.31C90.86 19.94 71.08 0.349992 45.71 0.349992ZM72.7999 48.96C72.7999 53.95 71.0799 56.83 65.7 60.1C58.02 64.9 53.99 68.94 50.91 75.27C49.6399 77.8 47.02 79.37 44.1899 79.31C31.8899 79.31 17.88 63.16 17.88 48.95C17.88 33 29.59 21.09 45.54 21.09C60.67 21.15 72.88 33.45 72.82 48.58C72.82 48.7 72.82 48.83 72.82 48.95" fill="#11133C"/>
</g>
</g>
</svg>
